<?xml version="1.0" encoding="UTF-8" standalone="no"?>
<!-- Created with Inkscape (http://www.inkscape.org/) -->

<svg
   width="210mm"
   height="297mm"
   viewBox="0 0 210 297"
   version="1.1"
   id="svg5"
   inkscape:version="1.1.1 (3bf5ae0d25, 2021-09-20)"
   sodipodi:docname="top_fingerprint_filled.svg"
   xmlns:inkscape="http://www.inkscape.org/namespaces/inkscape"
   xmlns:sodipodi="http://sodipodi.sourceforge.net/DTD/sodipodi-0.dtd"
   xmlns="http://www.w3.org/2000/svg"
   xmlns:svg="http://www.w3.org/2000/svg">
  <sodipodi:namedview
     id="namedview7"
     pagecolor="#ffffff"
     bordercolor="#666666"
     borderopacity="1.0"
     inkscape:pageshadow="2"
     inkscape:pageopacity="0.0"
     inkscape:pagecheckerboard="0"
     inkscape:document-units="mm"
     showgrid="false"
     inkscape:zoom="1.5376122"
     inkscape:cx="347.61691"
     inkscape:cy="925.7861"
     inkscape:window-width="1920"
     inkscape:window-height="1052"
     inkscape:window-x="0"
     inkscape:window-y="-9"
     inkscape:window-maximized="1"
     inkscape:current-layer="layer1" />
  <defs
     id="defs2">
    <clipPath
       clipPathUnits="userSpaceOnUse"
       id="clipPath840">
      <path
         d="M 0,0 H 841 V 595 H 0 Z"
         id="path838" />
    </clipPath>
    <clipPath
       clipPathUnits="userSpaceOnUse"
       id="clipPath840-5">
      <path
         d="M 0,0 H 841 V 595 H 0 Z"
         id="path838-3" />
    </clipPath>
    <clipPath
       clipPathUnits="userSpaceOnUse"
       id="clipPath25">
      <path
         d="M 0,0 H 841 V 595 H 0 Z"
         id="path23" />
    </clipPath>
  </defs>
  <g
     inkscape:label="Layer 1"
     id="layer1"
     inkscape:groupmode="layer">
    <path
       id="path127"
       style="fill:#c8c8c8;fill-opacity:1;stroke:#000000;stroke-width:0.100542;stroke-linecap:round;stroke-linejoin:round;stroke-miterlimit:10;stroke-dasharray:none;stroke-opacity:1"
       inkscape:label="plate_contour"
       d="m 68.145096,183.99975 -36.596733,1.45469 -0.402042,0.10025 -0.296622,0.10077 -0.201538,0.10077 -0.20102,0.19533 -0.201022,0.3018 -0.100254,0.34364 0.0011,57.7603 c 0.0013,0.55387 -0.446596,1.00146 -1.000456,1.00046 H 8.4510906 c -0.5512171,10e-4 -0.9990455,0.44944 -1.0004557,0.99942 l 0.00159,11.42669 -6.2068551,0.003 v 18.10845 l 0.00265,0.40721 0.047027,0.5979 0.1545114,0.49764 10.2495038,17.8015 0.348816,0.30179 0.450617,0.14779 0.549838,0.10026 44.254147,-12.74806 h 49.34479 l 37.96771,-14.50403 -0.0258,-74.91429 -0.0165,-0.2067 -0.0527,-0.19534 -0.0894,-0.185 -0.11731,-0.15865 -0.13746,-0.14314 -0.1695,-0.11162 -0.17932,-0.0842 -0.2067,-0.0522 -53.525934,-8.44599 z m 2.602944,2.9993 h 14.002245 v 14.00224 H 70.74804 Z M 51.645846,189.4976 H 65.64654 v 14.0007 H 51.645846 Z m 38.099999,0.0429 h 14.000695 v 14.0007 H 89.745845 Z m -57.097805,2.4598 h 14.002245 v 13.99656 H 32.64804 Z m 76.2,2.39727 h 14.00224 v 14.00121 h -14.00224 z m 18.9978,0 h 14.0007 v 14.00121 h -14.0007 z m -78.696999,10.59935 c 0.172722,0 0.345487,0.0445 0.500226,0.13385 0.309333,0.17879 0.499713,0.50866 0.499713,0.86609 0,0.35742 -0.19038,0.68746 -0.499713,0.8661 -0.30948,0.17879 -0.691123,0.17879 -1.000456,0 -0.30948,-0.17864 -0.49971,-0.50868 -0.49971,-0.8661 0,-0.35743 0.19023,-0.6873 0.49971,-0.86609 0.154668,-0.0893 0.327507,-0.13385 0.50023,-0.13385 z m 21.599199,1.08934 h 14.002245 v 14.00277 H 70.74804 Z m 18.997805,2.4505 H 103.74654 V 222.539 H 89.745845 Z m -38.099999,0.063 H 65.64654 v 13.99708 H 51.645846 Z M 125.14679,209.5 c 0.17272,0 0.34548,0.0443 0.50022,0.13332 0.30933,0.17864 0.49971,0.50935 0.49971,0.86662 0,0.35682 -0.19038,0.68731 -0.49971,0.86609 -0.30948,0.17864 -0.69112,0.17864 -1.00045,0 -0.30948,-0.17878 -0.49971,-0.50927 -0.49971,-0.86609 0,-0.35727 0.19023,-0.68798 0.49971,-0.86662 0.15466,-0.089 0.3275,-0.13332 0.50023,-0.13332 z m -92.49875,1.59835 h 14.002245 v 14.0007 H 32.64804 Z m 76.2,2.2009 h 14.00224 v 14.00225 h -14.00224 z m 18.9978,0 h 14.0007 v 14.00225 h -14.0007 z m -57.0978,11.89126 h 14.002245 v 14.0007 H 70.74804 Z M 51.645846,227.5976 H 65.64654 v 14.0007 H 51.645846 Z m 38.099999,0 h 14.000695 v 14.0007 H 89.745845 Z m -57.097805,2.50269 h 14.002245 v 13.99656 H 32.64804 Z m 76.2,2.39727 h 14.00224 v 14.00121 h -14.00224 z m 18.9978,0 h 14.0007 v 14.00121 h -14.0007 z m -57.0978,11.68869 h 14.002245 v 14.00276 H 70.74804 Z m -21.599199,1.31258 c 0.172722,0 0.345487,0.045 0.500226,0.13436 0.309333,0.17864 0.499713,0.50828 0.499713,0.86558 0,0.35744 -0.19038,0.68731 -0.499713,0.8661 -0.30948,0.17865 -0.691123,0.17865 -1.000456,0 -0.30948,-0.17879 -0.49971,-0.50866 -0.49971,-0.8661 0,-0.3573 0.19023,-0.68694 0.49971,-0.86558 0.154668,-0.0893 0.327507,-0.13436 0.50023,-0.13436 z m 2.497005,1.20096 H 65.64654 v 13.99708 H 51.645846 Z m 38.099999,0 h 14.000695 v 13.99708 H 89.745845 Z m -67.222252,1.00563 c 0.172722,0 0.345561,0.0445 0.500229,0.13384 0.309454,0.17858 0.49971,0.50886 0.49971,0.86558 0,0.35732 -0.190256,0.68787 -0.49971,0.86661 -0.309333,0.17858 -0.690975,0.17858 -1.000459,0 -0.309303,-0.17874 -0.49971,-0.50929 -0.49971,-0.86661 0,-0.35672 0.190407,-0.687 0.49971,-0.86558 0.154742,-0.0894 0.327507,-0.13384 0.50023,-0.13384 z m 102.623197,0.29145 c 0.17272,0 0.34548,0.0448 0.50022,0.13385 0.30933,0.17863 0.49971,0.50882 0.49971,0.86609 0,0.35682 -0.19038,0.68732 -0.49971,0.8661 -0.30948,0.17864 -0.69112,0.17864 -1.00045,0 -0.30948,-0.17878 -0.49971,-0.50928 -0.49971,-0.8661 0,-0.35727 0.19023,-0.68746 0.49971,-0.86609 0.15466,-0.089 0.3275,-0.13385 0.50023,-0.13385 z m -92.49875,1.10071 h 14.002245 v 14.00121 H 32.64804 Z m -13.712859,0.41806 2.168861,2.55127 -14.127305,11.80496 -2.1280331,-2.64015 z m 89.912859,1.98438 h 14.00224 v 14.00173 h -14.00224 z m 19.05,0 h 14.00224 v 14.00173 h -14.00224 z m -57.15,11.79049 h 14.002245 v 14.0007 H 70.74804 Z m -67.1013303,0.24856 c 0.1726698,0 0.3456094,0.045 0.5002266,0.13437 0.3093878,0.17803 0.4997106,0.50815 0.4997106,0.86557 0,0.35742 -0.1903228,0.68731 -0.4997106,0.8661 -0.3092371,0.17864 -0.6910679,0.17864 -1.0004557,0 -0.3092371,-0.17879 -0.5002266,-0.50868 -0.5002266,-0.8661 0,-0.35742 0.1909895,-0.68754 0.5002266,-0.86557 0.1546939,-0.0894 0.3275568,-0.13436 0.5002291,-0.13437 z M 51.645846,265.6976 H 65.64654 v 14.0007 H 51.645846 Z m 38.099999,0.10077 h 14.000695 v 14.00069 H 89.745845 Z m -67.602075,1.20044 c 0.17254,0 0.345093,0.045 0.499713,0.13436 0.309806,0.17879 0.500227,0.50867 0.500227,0.8661 0,0.35742 -0.190421,0.68694 -0.500227,0.86558 -0.309239,0.17879 -0.690184,0.17879 -0.999424,0 -0.309837,-0.17864 -0.500226,-0.50816 -0.500226,-0.86558 0,-0.35743 0.190389,-0.68731 0.500226,-0.8661 0.15462,-0.0893 0.327171,-0.13436 0.499711,-0.13436 z m 19.553846,1.82573 3.624069,13.52527 -13.525275,3.62045 -3.619934,-13.52062 z m -23.2792,4.01113 7.001642,12.12277 -12.123809,7.00164 -7.0006051,-12.12381 z" />
  </g>
</svg>
