<?xml version="1.0" encoding="UTF-8" standalone="no"?>
<!-- Created with Inkscape (http://www.inkscape.org/) -->

<svg
   width="210mm"
   height="297mm"
   viewBox="0 0 210 297"
   version="1.1"
   id="svg5"
   inkscape:version="1.1.1 (3bf5ae0d25, 2021-09-20)"
   sodipodi:docname="bottom.svg"
   xmlns:inkscape="http://www.inkscape.org/namespaces/inkscape"
   xmlns:sodipodi="http://sodipodi.sourceforge.net/DTD/sodipodi-0.dtd"
   xmlns="http://www.w3.org/2000/svg"
   xmlns:svg="http://www.w3.org/2000/svg">
  <sodipodi:namedview
     id="namedview7"
     pagecolor="#ffffff"
     bordercolor="#666666"
     borderopacity="1.0"
     inkscape:pageshadow="2"
     inkscape:pageopacity="0.0"
     inkscape:pagecheckerboard="0"
     inkscape:document-units="mm"
     showgrid="false"
     inkscape:zoom="1.5376122"
     inkscape:cx="218.19546"
     inkscape:cy="1044.8018"
     inkscape:window-width="1920"
     inkscape:window-height="1052"
     inkscape:window-x="0"
     inkscape:window-y="-9"
     inkscape:window-maximized="1"
     inkscape:current-layer="layer1" />
  <defs
     id="defs2">
    <clipPath
       clipPathUnits="userSpaceOnUse"
       id="clipPath840">
      <path
         d="M 0,0 H 841 V 595 H 0 Z"
         id="path838" />
    </clipPath>
  </defs>
  <g
     inkscape:label="Layer 1"
     inkscape:groupmode="layer"
     id="layer1">
    <path
       d="m 0.9396287,188.04459 0.201436,-0.30163 0.195439,-0.19579 0.201436,-0.10054 0.300214,-0.10054 0.402519,-0.1009 65.4900183,-2.49696 h 21.949128 l 53.525911,8.44621 0.20673,0.0522 0.17921,0.084 0.16933,0.11181 0.13794,0.14323 0.11712,0.1584 0.0896,0.18485 0.0522,0.19544 0.0166,0.20673 0.0261,74.91447 -37.9677,14.50376 H 56.888066 l -44.254207,12.74833 -0.549981,-0.10054 -0.450497,-0.14747 -0.348544,-0.30197 -10.2499583,-17.80152 -0.154517,-0.49742 -0.04657,-0.59796 -0.0028,-0.40728 0.0026,-88.24118 z"
       style="fill:none;stroke:#000000;stroke-width:0.148167;stroke-linecap:round;stroke-linejoin:round;stroke-miterlimit:10;stroke-dasharray:none;stroke-opacity:1"
       id="path954"
       sodipodi:nodetypes="cccccccccccccccccccccccccccccc"
       inkscape:label="plate_contour" />
    <path
       d="m 22.729239,268.74772 c 0,0.35743 -0.190462,0.68725 -0.5003,0.86589 -0.309238,0.17879 -0.690162,0.17879 -0.9994,0 -0.309838,-0.17864 -0.5003,-0.50846 -0.5003,-0.86589 0,-0.35743 0.190462,-0.68725 0.5003,-0.86604 0.309238,-0.17864 0.690162,-0.17864 0.9994,0 0.309838,0.17879 0.5003,0.50861 0.5003,0.86604 z"
       style="fill:#000000;fill-opacity:1;fill-rule:nonzero;stroke:none;stroke-width:0.14998"
       id="path960"
       inkscape:label="hole005" />
    <path
       d="m 125.73224,249.7457 c 0,0.35682 -0.19052,0.68724 -0.49985,0.86602 -0.30948,0.17864 -0.69097,0.17864 -1.0003,0 -0.30948,-0.17878 -0.49985,-0.5092 -0.49985,-0.86602 0,-0.35727 0.19037,-0.68784 0.49985,-0.86648 0.30933,-0.17803 0.69082,-0.17803 1.0003,0 0.30933,0.17864 0.49985,0.50921 0.49985,0.86648 z"
       style="fill:#000000;fill-opacity:1;fill-rule:nonzero;stroke:none;stroke-width:0.150001"
       id="path964"
       inkscape:label="hole004" />
    <path
       d="m 49.733239,247.24762 c 0,0.35745 -0.19052,0.6873 -0.499848,0.86609 -0.309481,0.17865 -0.690972,0.17865 -1.000304,0 -0.309481,-0.17879 -0.499848,-0.50864 -0.499848,-0.86609 0,-0.35729 0.190367,-0.68729 0.499848,-0.86593 0.309332,-0.17865 0.690823,-0.17865 1.000304,0 0.309328,0.17864 0.499848,0.50864 0.499848,0.86593 z"
       style="fill:#000000;fill-opacity:1;fill-rule:nonzero;stroke:none;stroke-width:0.150007"
       id="path962"
       inkscape:label="hole003" />
    <path
       d="m 125.73224,211.2487 c 0,0.35681 -0.19052,0.68724 -0.49985,0.86602 -0.30948,0.17863 -0.69097,0.17863 -1.0003,0 -0.30948,-0.17878 -0.49985,-0.50921 -0.49985,-0.86602 0,-0.35727 0.19037,-0.68784 0.49985,-0.86648 0.30933,-0.17803 0.69082,-0.17803 1.0003,0 0.30933,0.17864 0.49985,0.5092 0.49985,0.86648 z"
       style="fill:#000000;fill-opacity:1;fill-rule:nonzero;stroke:none;stroke-width:0.150001"
       id="path968"
       inkscape:label="hole002" />
    <path
       d="m 49.733239,206.74572 c 0,0.35742 -0.19052,0.68725 -0.499848,0.86589 -0.309481,0.17879 -0.690972,0.17879 -1.000304,0 -0.309481,-0.17864 -0.499848,-0.50847 -0.499848,-0.86589 0,-0.35743 0.190367,-0.68725 0.499848,-0.86604 0.309332,-0.17864 0.690823,-0.17864 1.000304,0 0.309328,0.17879 0.499848,0.50861 0.499848,0.86604 z"
       style="fill:#000000;fill-opacity:1;fill-rule:nonzero;stroke:none;stroke-width:0.150002"
       id="path966-3"
       inkscape:label="hole001" />
  </g>
</svg>
