<?xml version="1.0" encoding="UTF-8" standalone="no"?>
<!-- Created with Inkscape (http://www.inkscape.org/) -->

<svg
   width="210mm"
   height="297mm"
   viewBox="0 0 210 297"
   version="1.1"
   id="svg5"
   inkscape:version="1.1.1 (3bf5ae0d25, 2021-09-20)"
   sodipodi:docname="bottom_filled.svg"
   xmlns:inkscape="http://www.inkscape.org/namespaces/inkscape"
   xmlns:sodipodi="http://sodipodi.sourceforge.net/DTD/sodipodi-0.dtd"
   xmlns="http://www.w3.org/2000/svg"
   xmlns:svg="http://www.w3.org/2000/svg">
  <sodipodi:namedview
     id="namedview7"
     pagecolor="#ffffff"
     bordercolor="#666666"
     borderopacity="1.0"
     inkscape:pageshadow="2"
     inkscape:pageopacity="0.0"
     inkscape:pagecheckerboard="0"
     inkscape:document-units="mm"
     showgrid="false"
     inkscape:zoom="1.5376122"
     inkscape:cx="218.19546"
     inkscape:cy="888.71563"
     inkscape:window-width="1920"
     inkscape:window-height="1052"
     inkscape:window-x="0"
     inkscape:window-y="-9"
     inkscape:window-maximized="1"
     inkscape:current-layer="layer1" />
  <defs
     id="defs2">
    <clipPath
       clipPathUnits="userSpaceOnUse"
       id="clipPath840">
      <path
         d="M 0,0 H 841 V 595 H 0 Z"
         id="path838" />
    </clipPath>
  </defs>
  <g
     inkscape:label="Layer 1"
     inkscape:groupmode="layer"
     id="layer1">
    <path
       id="path954"
       style="fill:#c8c8c8;stroke:#000000;stroke-width:0.560001;stroke-linecap:round;stroke-linejoin:round;stroke-miterlimit:10;stroke-dasharray:none;stroke-opacity:1;fill-opacity:1"
       inkscape:label="plate"
       d="m 255.99023,698.26172 -247.52148,9.4375 -1.5214844,0.38086 -1.1347656,0.3789 -0.7617188,0.38086 -0.7382812,0.74024 -0.7617188,1.13867 -0.4003906,1.35352 -0.00977,333.50973 0.00977,1.5391 0.1777344,2.2598 0.5839844,1.8808 38.7382816,67.2813 1.318359,1.1406 1.703125,0.5566 2.078125,0.3809 167.25977,-48.1836 h 186.5 l 143.5,-54.8164 -0.0977,-283.14063 -0.0644,-0.78125 -0.19727,-0.74024 -0.33789,-0.69726 -0.44336,-0.59961 -0.51953,-0.54102 -0.64063,-0.42187 -0.67773,-0.31836 -0.78125,-0.19727 -202.30273,-31.92187 z m -71.80273,79.35937 c 0.65282,0 1.30582,0.16828 1.89062,0.50586 1.16912,0.67574 1.89063,1.92252 1.89063,3.27344 0,1.35088 -0.72151,2.59826 -1.89063,3.27344 -1.16965,0.67574 -2.61016,0.67574 -3.77929,0 -1.16969,-0.67518 -1.89063,-1.92256 -1.89063,-3.27344 0,-1.35092 0.72094,-2.5977 1.89063,-3.27344 0.58456,-0.33758 1.23585,-0.50586 1.88867,-0.50586 z m 287.24219,17.01953 c 0.65281,0 1.30383,0.16748 1.88867,0.50391 1.16912,0.67518 1.89062,1.92504 1.89062,3.27539 0,1.34858 -0.7215,2.59774 -1.89062,3.27344 -1.16969,0.67514 -2.61018,0.67514 -3.7793,0 -1.16969,-0.6757 -1.89062,-1.92486 -1.89062,-3.27344 0,-1.35031 0.72093,-2.60021 1.89062,-3.27539 0.58456,-0.33643 1.23781,-0.5039 1.89063,-0.50391 z M 184.1875,930.69922 c 0.65282,0 1.30579,0.1702 1.89062,0.50781 1.16912,0.67518 1.89063,1.9211 1.89063,3.27149 0,1.35099 -0.72151,2.59769 -1.89063,3.27343 -1.16968,0.67522 -2.61016,0.67522 -3.77929,0 -1.16969,-0.67574 -1.89063,-1.92244 -1.89063,-3.27343 0,-1.35039 0.72094,-2.59631 1.89063,-3.27149 0.58456,-0.33761 1.23585,-0.50781 1.88867,-0.50781 z m 287.24219,9.4414 c 0.65281,0 1.30383,0.16943 1.88867,0.50586 1.16912,0.67518 1.89062,1.92313 1.89062,3.27344 0,1.34861 -0.7215,2.59774 -1.89062,3.27344 -1.16969,0.67517 -2.61018,0.67517 -3.7793,0 -1.16969,-0.6757 -1.89062,-1.92483 -1.89062,-3.27344 0,-1.35031 0.72093,-2.59826 1.89062,-3.27344 0.58456,-0.33643 1.23781,-0.50586 1.89063,-0.50586 z M 82.126953,1011.959 c 0.652122,0 1.304285,0.1702 1.888672,0.5078 1.171041,0.6757 1.890625,1.9225 1.890625,3.2734 0,1.351 -0.719584,2.5963 -1.890625,3.2715 -1.168774,0.6758 -2.60857,0.6758 -3.777344,0 -1.171041,-0.6752 -1.890625,-1.9205 -1.890625,-3.2715 0,-1.3509 0.719584,-2.5977 1.890625,-3.2734 0.584387,-0.3376 1.236551,-0.5078 1.888672,-0.5078 z"
       transform="scale(0.26458333)" />
  </g>
</svg>
