<?xml version="1.0" encoding="UTF-8" standalone="no"?>
<!-- Created with Inkscape (http://www.inkscape.org/) -->

<svg
   width="210mm"
   height="297mm"
   viewBox="0 0 210 297"
   version="1.1"
   id="svg5"
   inkscape:version="1.1.1 (3bf5ae0d25, 2021-09-20)"
   sodipodi:docname="top_encoder_filled.svg"
   xmlns:inkscape="http://www.inkscape.org/namespaces/inkscape"
   xmlns:sodipodi="http://sodipodi.sourceforge.net/DTD/sodipodi-0.dtd"
   xmlns="http://www.w3.org/2000/svg"
   xmlns:svg="http://www.w3.org/2000/svg">
  <sodipodi:namedview
     id="namedview7"
     pagecolor="#ffffff"
     bordercolor="#666666"
     borderopacity="1.0"
     inkscape:pageshadow="2"
     inkscape:pageopacity="0.0"
     inkscape:pagecheckerboard="0"
     inkscape:document-units="mm"
     showgrid="false"
     inkscape:zoom="1.102114"
     inkscape:cx="172.84963"
     inkscape:cy="827.04693"
     inkscape:window-width="1920"
     inkscape:window-height="1052"
     inkscape:window-x="0"
     inkscape:window-y="-9"
     inkscape:window-maximized="1"
     inkscape:current-layer="layer1" />
  <defs
     id="defs2">
    <clipPath
       clipPathUnits="userSpaceOnUse"
       id="clipPath840">
      <path
         d="M 0,0 H 841 V 595 H 0 Z"
         id="path838" />
    </clipPath>
    <clipPath
       clipPathUnits="userSpaceOnUse"
       id="clipPath25">
      <path
         d="M 0,0 H 841 V 595 H 0 Z"
         id="path23" />
    </clipPath>
  </defs>
  <g
     inkscape:label="Layer 1"
     inkscape:groupmode="layer"
     id="layer1">
    <path
       id="path127"
       style="fill:#c8c8c8;fill-opacity:1;stroke:#000000;stroke-width:0.380001;stroke-linecap:round;stroke-linejoin:round;stroke-miterlimit:10;stroke-dasharray:none;stroke-opacity:1"
       inkscape:label="plate"
       d="m 257.88867,695.57617 -138.31836,5.5 -1.51953,0.37891 -1.11914,0.38086 -0.76172,0.3789 -0.75976,0.74024 -0.75977,1.14062 -0.38086,1.29688 0.004,218.30664 c 0.005,2.09337 -1.68597,3.78503 -3.7793,3.78125 l -78.220702,0.002 c -2.083337,0.004 -3.773964,1.69673 -3.779297,3.77539 l 0.0039,43.1875 -23.4570314,0.0117 v 68.44137 l 0.00977,1.5391 0.1757813,2.2598 0.5839844,1.8789 38.7402341,67.2812 1.316407,1.1426 1.703124,0.5566 2.078126,0.3809 167.261722,-48.1836 h 186.5 l 143.5,-54.8164 -0.0996,-283.14258 -0.0625,-0.78125 -0.19727,-0.73828 -0.33789,-0.69922 -0.44336,-0.59765 -0.52148,-0.54102 -0.64063,-0.42383 -0.67578,-0.3164 -0.7832,-0.19727 -202.30078,-31.92383 z m 9.83789,11.33789 h 52.92383 v 52.92188 h -52.92383 z m -72.19726,9.44336 h 52.91601 v 52.91602 H 195.5293 Z m 144,0.16016 h 52.91601 v 52.91601 H 339.5293 Z m -215.80274,9.29883 h 52.92383 v 52.89843 h -52.92383 z m 288,9.06054 h 52.92383 v 52.91797 h -52.92383 z m 71.80274,0 h 52.91601 v 52.91797 H 483.5293 Z M 186.0918,774.9375 c 0.65281,0 1.30578,0.16827 1.89062,0.50586 1.16913,0.67574 1.89063,1.92252 1.89063,3.27344 0,1.35088 -0.7215,2.59826 -1.89063,3.27343 -1.16969,0.67575 -2.61017,0.67575 -3.7793,0 -1.16965,-0.67517 -1.89062,-1.92255 -1.89062,-3.27343 0,-1.35092 0.72097,-2.5977 1.89062,-3.27344 0.58457,-0.33759 1.23586,-0.50586 1.88868,-0.50586 z m 81.63476,4.11719 h 52.92383 v 52.92187 h -52.92383 z m 71.80274,9.26172 h 52.91601 v 52.91992 H 339.5293 Z m -144,0.23828 h 52.91601 v 52.90039 H 195.5293 Z m 277.79882,3.40234 c 0.65282,0 1.30579,0.16747 1.89063,0.50391 1.16912,0.67517 1.89061,1.92508 1.89063,3.27539 0,1.34861 -0.72151,2.59773 -1.89063,3.27344 -1.16969,0.67517 -2.61018,0.67517 -3.7793,0 -1.16969,-0.67571 -1.89062,-1.92483 -1.89062,-3.27344 0,-1.35031 0.72093,-2.60022 1.89062,-3.27539 0.58456,-0.33644 1.23589,-0.50391 1.88867,-0.50391 z m -349.60156,6.03906 h 52.92383 v 52.91797 h -52.92383 z m 288,8.32032 h 52.92383 v 52.91992 h -52.92383 z m 71.80274,0 h 52.91601 v 52.91992 H 483.5293 Z m -215.80274,44.9414 h 52.92383 v 52.91602 h -52.92383 z m -72.19726,9.09961 h 52.91601 v 52.91602 H 195.5293 Z m 144,0 h 52.91601 v 52.91602 H 339.5293 Z m -215.80274,9.45899 h 52.92383 v 52.89843 h -52.92383 z m 288,9.06054 h 52.92383 v 52.91797 h -52.92383 z m 71.80274,0 h 52.91601 v 52.91797 H 483.5293 Z m -215.80274,44.17774 h 52.92383 v 52.92187 h -52.92383 z m -81.63476,4.96093 c 0.65281,10e-6 1.30578,0.16826 1.89062,0.50586 1.16913,0.67518 1.89063,1.92302 1.89063,3.27344 0,1.35096 -0.7215,2.5977 -1.89063,3.27344 -1.16969,0.67521 -2.61017,0.67521 -3.7793,0 -1.16967,-0.67574 -1.89062,-1.92248 -1.89062,-3.27344 0,-1.35042 0.72095,-2.59826 1.89062,-3.27344 0.58457,-0.3376 1.23586,-0.50585 1.88868,-0.50586 z m 9.4375,4.53907 h 52.91601 v 52.90039 H 195.5293 Z m 144,0 h 52.91601 v 52.90039 H 339.5293 Z m -296.302738,3.02148 h 58.958988 v 22.68164 22.67578 H 43.226562 Z m 430.101558,1.88086 c 0.65282,0 1.30579,0.16747 1.89063,0.50391 1.16912,0.67517 1.89062,1.92508 1.89063,3.27539 0,1.34861 -0.72151,2.59773 -1.89063,3.27344 -1.16969,0.67517 -2.61018,0.67517 -3.7793,0 -1.16969,-0.67571 -1.89062,-1.92483 -1.89062,-3.27344 0,-1.35031 0.72093,-2.60022 1.89062,-3.27539 0.58456,-0.33644 1.23587,-0.50391 1.88867,-0.50391 z m -349.60156,4.16016 h 52.92383 v 52.91601 h -52.92383 z m 288,9.07812 h 52.92383 v 52.92189 h -52.92383 z m 72,0 h 52.92383 v 52.92189 h -52.92383 z m -216,44.5625 h 52.92383 v 52.91599 h -52.92383 z m -72.19726,9.09959 h 52.91601 v 52.916 H 195.5293 Z m 144,0.3789 h 52.91601 v 52.916 H 339.5293 Z m -255.501956,4.5391 c 0.65212,0 1.304283,0.1683 1.888672,0.5058 1.171045,0.6758 1.890625,1.9226 1.890625,3.2735 0,1.3509 -0.71958,2.5983 -1.890625,3.2734 -1.168778,0.6758 -2.608567,0.6758 -3.777344,0 -1.171045,-0.6751 -1.892578,-1.9225 -1.892578,-3.2734 0,-1.3509 0.721533,-2.5977 1.892578,-3.2735 0.584389,-0.3375 1.236551,-0.5058 1.888672,-0.5058 z m 73.904296,6.8984 13.69727,51.1211 -51.1211,13.6817 -13.68164,-51.0996 z m -87.986328,15.1621 26.464844,45.8164 -45.822265,26.4649 -26.458985,-45.8223 z"
       transform="scale(0.26458333)" />
  </g>
</svg>
