<?xml version="1.0" encoding="UTF-8" standalone="no"?>
<!-- Created with Inkscape (http://www.inkscape.org/) -->

<svg
   width="210mm"
   height="297mm"
   viewBox="0 0 210 297"
   version="1.1"
   id="svg5"
   inkscape:version="1.1.1 (3bf5ae0d25, 2021-09-20)"
   sodipodi:docname="OLED_Tape.svg"
   xmlns:inkscape="http://www.inkscape.org/namespaces/inkscape"
   xmlns:sodipodi="http://sodipodi.sourceforge.net/DTD/sodipodi-0.dtd"
   xmlns="http://www.w3.org/2000/svg"
   xmlns:svg="http://www.w3.org/2000/svg">
  <sodipodi:namedview
     id="namedview7"
     pagecolor="#ffffff"
     bordercolor="#666666"
     borderopacity="1.0"
     inkscape:pageshadow="2"
     inkscape:pageopacity="0.0"
     inkscape:pagecheckerboard="0"
     inkscape:document-units="mm"
     showgrid="false"
     inkscape:zoom="1.5376122"
     inkscape:cx="2.2762567"
     inkscape:cy="1052.6061"
     inkscape:window-width="1920"
     inkscape:window-height="1052"
     inkscape:window-x="0"
     inkscape:window-y="-9"
     inkscape:window-maximized="1"
     inkscape:current-layer="layer1" />
  <defs
     id="defs2">
    <clipPath
       clipPathUnits="userSpaceOnUse"
       id="clipPath840">
      <path
         d="M 0,0 H 841 V 595 H 0 Z"
         id="path838" />
    </clipPath>
  </defs>
  <g
     inkscape:label="Layer 1"
     inkscape:groupmode="layer"
     id="layer1">
    <path
       d="m 27.32563,293.57718 c 0,0.35708 -0.190627,0.68738 -0.499647,0.86636 -0.309726,0.1781 -0.69098,0.1781 -1.000705,0 -0.309021,-0.17898 -0.499648,-0.50928 -0.499648,-0.86636 0,-0.35725 0.190627,-0.68756 0.499648,-0.86636 0.309725,-0.17828 0.690979,-0.17828 1.000705,0 0.30902,0.1788 0.499647,0.50911 0.499647,0.86636 z"
       style="fill:#000000;fill-opacity:1;fill-rule:nonzero;stroke:none;stroke-width:0.176171"
       id="path844"
       inkscape:label="hole002" />
    <path
       d="m 11.82563,293.57718 c 0,0.35708 -0.190577,0.68738 -0.50022,0.86636 -0.308939,0.1781 -0.690092,0.1781 -0.999736,0 -0.309467,-0.17898 -0.500044,-0.50928 -0.500044,-0.86636 0,-0.35725 0.190577,-0.68756 0.500044,-0.86636 0.309644,-0.17828 0.690797,-0.17828 0.999736,0 0.309643,0.1788 0.50022,0.50911 0.50022,0.86636 z"
       style="fill:#000000;fill-opacity:1;fill-rule:nonzero;stroke:none;stroke-width:0.176147"
       id="path846-3"
       inkscape:label="hole001" />
    <path
       d="m 0.85790684,239.02281 c -0.013935,-0.38312 0.1240014,-0.75389 0.38294016,-1.03082 0.2592917,-0.27835 0.6187722,-0.44098 0.9978319,-0.45261 L 28.919614,236.4761 c 0.353307,-0.0318 0.700793,0.0773 0.965376,0.30445 0.264584,0.22754 0.427214,0.5528 0.443618,0.89799 l -0.0014,57.75696 c 0.0012,0.55386 -0.44644,1.00188 -1.000301,1.00047 H 1.8555623 c -0.548393,10e-4 -0.99642076,-0.44661 -0.99765546,-1.00876 z"
       style="fill:none;stroke:#000000;stroke-width:0.100542;stroke-linecap:round;stroke-linejoin:round;stroke-miterlimit:10;stroke-dasharray:none;stroke-opacity:1"
       id="path858"
       sodipodi:nodetypes="ccccccccccc"
       inkscape:label="plate_contour" />
  </g>
</svg>
