M48
; DRILL file {KiCad 5.1.10} date Fri Oct  1 05:52:16 2021
; FORMAT={-:-/ absolute / inch / decimal}
; #@! TF.CreationDate,2021-10-01T05:52:16+02:00
; #@! TF.GenerationSoftware,Kicad,Pcbnew,5.1.10
FMAT,2
INCH
T1C0.0118
T2C0.0300
T3C0.0315
T4C0.0320
T5C0.0394
T6C0.0512
T7C0.0591
T8C0.0866
T9C0.1614
T10C0.0472
T11C0.0669
T12C0.0748
T13C0.1181
T14C0.1614
%
G90
G05
T1
X3.2728Y-4.8335
X3.2772Y-4.8748
X3.2886Y-2.6331
X3.3339Y-4.6638
X3.338Y-2.465
X3.3559Y-4.9004
X3.4008Y-5.1831
X3.4055Y-4.437
X3.4063Y-4.3693
X3.4256Y-4.4969
X3.4287Y-2.4469
X3.448Y-2.152
X3.448Y-4.8417
X3.4753Y-5.2474
X3.485Y-2.244
X3.4854Y-4.3283
X3.487Y-1.989
X3.5094Y-4.3043
X3.5108Y-3.7348
X3.528Y-4.6614
X3.5437Y-3.9673
X3.5437Y-4.2988
X3.5636Y-4.8719
X3.5638Y-4.5689
X3.5646Y-4.0339
X3.5701Y-4.3772
X3.6028Y-4.411
X3.6528Y-4.4031
X3.6547Y-4.7559
X3.662Y-3.063
X3.6748Y-4.8925
X3.6957Y-1.4828
X3.7307Y-4.885
X3.7323Y-2.7795
X3.7441Y-1.7402
X3.7515Y-1.4825
X3.755Y-2.799
X3.7815Y-2.6695
X3.7835Y-2.0232
X3.8071Y-2.6693
X3.811Y-3.6146
X3.815Y-1.7703
X3.815Y-1.9213
X3.82Y-3.4889
X3.8374Y-3.5543
X3.8783Y-4.9994
X3.8785Y-2.0703
X3.8795Y-4.5071
X3.8853Y-5.5074
X3.8913Y-3.6815
X3.8963Y-5.0254
X3.9252Y-5.2874
X3.9449Y-4.8268
X3.9528Y-1.9703
X3.9528Y-2.7087
X3.9833Y-4.9213
X3.9843Y-2.122
X3.9936Y-1.8295
X4.0064Y-3.7924
X4.0108Y-2.1703
X4.014Y-1.472
X4.0157Y-3.3858
X4.038Y-3.7195
X4.0423Y-2.2703
X4.0449Y-4.9479
X4.0483Y-2.7075
X4.0591Y-2.6732
X4.0591Y-5.5039
X4.062Y-2.3703
X4.0827Y-2.4703
X4.0866Y-5.2913
X4.1063Y-2.5423
X4.1143Y-5.0517
X4.1181Y-4.9291
X4.1222Y-3.4057
X4.1339Y-2.5984
X4.1391Y-5.2745
X4.1413Y-4.8277
X4.1468Y-2.6406
X4.1496Y-3.3071
X4.1503Y-5.1257
X4.1575Y-2.0236
X4.1575Y-2.5669
X4.1614Y-2.2323
X4.1614Y-1.7323
X4.1614Y-2.3228
X4.1614Y-2.437
X4.1614Y-2.5197
X4.1614Y-1.6378
X4.1614Y-2.1339
X4.166Y-1.5375
X4.1759Y-4.9745
X4.1831Y-3.8189
X4.189Y-3.4331
X4.1978Y-3.2598
X4.2008Y-2.9409
X4.2205Y-5.2913
X4.2431Y-3.8494
X4.2495Y-4.618
X4.2638Y-5.1969
X4.2736Y-3.3169
X4.2756Y-4.8937
X4.3071Y-3.4409
X4.3071Y-4.8865
X4.3115Y-4.7151
X4.3406Y-1.8898
X4.3425Y-5.0039
X4.3482Y-2.7206
X4.3612Y-3.5335
X4.3685Y-1.6435
X4.3695Y-4.773
X4.378Y-2.9272
X4.3839Y-3.8514
X4.3859Y-3.3169
X4.3927Y-2.4724
X4.3957Y-2.7224
X4.3986Y-1.8317
X4.3996Y-3.4843
X4.3996Y-4.4193
X4.4094Y-4.0256
X4.4094Y-4.065
X4.4291Y-4.8819
X4.437Y-1.721
X4.439Y-2.9783
X4.4409Y-4.3878
X4.4449Y-4.7057
X4.4488Y-2.3543
X4.4508Y-3.6457
X4.4581Y-2.646
X4.4587Y-3.061
X4.483Y-1.8275
X4.4843Y-5.4252
X4.4882Y-3.1201
X4.4951Y-2.468
X4.498Y-4.4783
X4.5177Y-2.2244
X4.5276Y-3.2992
X4.5591Y-2.4213
X4.5669Y-1.752
X4.5709Y-4.7165
X4.5748Y-2.5768
X4.5778Y-3.2384
X4.5807Y-3.2835
X4.5825Y-1.6355
X4.5827Y-1.7106
X4.5906Y-2.3504
X4.5965Y-2.5098
X4.6004Y-3.9252
X4.6053Y-3.9944
X4.6122Y-1.8543
X4.626Y-3.4449
X4.7165Y-4.9134
X4.7244Y-4.811
X4.7244Y-4.9567
X4.7559Y-3.1309
X4.7602Y-4.8748
X4.813Y-2.6161
X4.832Y-4.7926
X4.832Y-4.8556
X4.8327Y-5.315
X4.8336Y-4.6858
X4.8395Y-2.5938
X4.8425Y-1.8484
X4.8622Y-5.2559
X4.8661Y-4.1285
X4.8799Y-3.3681
X4.8996Y-3.9961
X4.9016Y-1.7421
X4.9054Y-3.187
X4.9055Y-2.3425
X4.9055Y-2.498
X4.9294Y-4.6113
X4.9311Y-2.378
X4.9314Y-4.662
X4.9331Y-3.0157
X4.9331Y-4.5059
X4.939Y-1.7441
X4.939Y-3.2874
X4.939Y-3.9961
X4.9429Y-3.7638
X4.9478Y-4.9213
X4.9902Y-1.7559
X4.9921Y-2.3228
X4.9921Y-2.622
X5.0177Y-1.9291
X5.0315Y-2.9961
X5.0404Y-4.4587
X5.0472Y-4.9606
X5.0488Y-2.4567
X5.0551Y-5.2953
X5.0591Y-3.4213
X5.063Y-5.1575
X5.0663Y-4.6858
X5.0689Y-1.8268
X5.0787Y-4.8898
X5.1083Y-3.9921
X5.1094Y-4.807
X5.1181Y-1.7283
X5.1181Y-3.2244
X5.1244Y-4.544
X5.1417Y-2.9409
X5.1486Y-4.4736
X5.1575Y-1.8169
X5.1575Y-2.5827
X5.1575Y-3.1181
X5.1791Y-3.5394
X5.189Y-2.7913
X5.189Y-4.2894
X5.189Y-5.1732
X5.2214Y-5.131
X5.2283Y-2.3858
X5.2353Y-1.7836
X5.2362Y-3.0709
X5.2423Y-1.6809
X5.2461Y-4.3819
X5.2559Y-5.2441
X5.2598Y-2.2913
X5.2904Y-3.1152
X5.315Y-3.9055
X5.3278Y-2.3671
X5.3287Y-3.1535
X5.3346Y-1.5974
X5.3366Y-1.6496
X5.3394Y-4.644
X5.3406Y-2.3996
X5.3413Y-4.6751
X5.3425Y-3.8881
X5.3775Y-2.1832
X5.4114Y-1.7953
X5.4658Y-5.1444
X5.4882Y-2.9961
X5.5433Y-5.2283
X5.5554Y-5.1677
X5.5634Y-4.528
X5.6063Y-4.0472
X5.6299Y-2.2835
X5.6299Y-3.7559
X5.6394Y-1.6453
X5.6424Y-5.19
X5.6437Y-2.3996
X5.645Y-4.6675
X5.6484Y-4.624
X5.6535Y-3.8996
X5.6555Y-3.1457
X5.6693Y-1.6063
X5.6713Y-3.6427
X5.6762Y-2.3671
X5.6811Y-2.1614
X5.6811Y-2.9094
X5.6811Y-4.4075
X5.7008Y-2.5354
X5.7047Y-3.8937
X5.7067Y-3.1161
X5.7174Y-4.654
X5.7244Y-1.7323
X5.7559Y-5.1732
X5.7677Y-2.2559
X5.769Y-2.404
X5.7717Y-1.8268
X5.7828Y-4.5584
X5.7835Y-4.8858
X5.7874Y-2.5433
X5.7922Y-4.7828
X5.802Y-3.32
X5.8071Y-3.2303
X5.811Y-1.685
X5.8184Y-5.0927
X5.8275Y-3.092
X5.8404Y-4.8079
X5.8465Y-1.815
X5.8465Y-2.0591
X5.8465Y-2.4213
X5.8465Y-2.5472
X5.8465Y-3.7559
X5.8465Y-4.0039
X5.8465Y-4.4213
X5.868Y-3.627
X5.8701Y-5.0315
X5.876Y-2.2024
X5.8858Y-4.2283
X5.8957Y-3.1866
X5.8975Y-4.725
X5.8976Y-2.8819
X5.9055Y-3.8559
X5.9154Y-2.0577
X5.9154Y-2.4228
X5.9252Y-1.6623
X5.9272Y-1.9543
X5.937Y-3.4504
X5.9409Y-2.6945
X5.9409Y-4.1945
X5.9488Y-4.3819
X5.956Y-5.137
X5.9592Y-1.7983
X5.9615Y-3.23
X5.9646Y-2.3441
X5.965Y-3.083
X5.9744Y-2.5016
X5.9867Y-1.5699
X5.987Y-1.6386
X6.0Y-4.4525
X6.0127Y-1.5671
X6.0164Y-4.651
X6.0236Y-4.2929
X6.0352Y-4.5242
X6.0472Y-3.0724
X6.0482Y-2.0833
X6.0531Y-3.7909
X6.0551Y-1.5469
X6.063Y-4.378
X6.0669Y-2.3835
X6.0748Y-3.0626
X6.0827Y-2.1177
X6.09Y-4.45
X6.0913Y-1.5512
X6.0925Y-2.3146
X6.0925Y-3.8008
X6.0944Y-4.57
X6.1181Y-3.6541
X6.1315Y-3.2265
X6.1735Y-5.2075
X6.2004Y-5.072
X6.2475Y-5.0525
X6.25Y-3.5449
X6.2598Y-2.1177
X6.3179Y-3.1669
X6.3386Y-1.6289
X6.3563Y-3.728
X6.3642Y-2.3972
X6.3846Y-3.0499
X6.3878Y-2.1177
X6.3898Y-2.3126
X6.3974Y-4.5034
X6.3976Y-1.5567
X6.4016Y-4.5551
X6.403Y-1.677
X6.4035Y-2.1492
X6.4055Y-3.7988
X6.4154Y-2.3461
X6.4252Y-3.0409
X6.4291Y-3.5685
X6.4331Y-2.8126
X6.4331Y-4.3126
X6.437Y-4.6339
X6.4374Y-4.4323
X6.4415Y-5.1565
X6.4508Y-1.5705
X6.4961Y-3.0921
X6.4961Y-3.2102
X6.5039Y-4.3661
X6.5059Y-2.0547
X6.5106Y-1.5106
X6.5236Y-2.8701
X6.5236Y-3.0197
X6.5256Y-2.2358
X6.5276Y-2.4843
X6.5315Y-5.0512
X6.5335Y-4.4737
X6.5394Y-4.7402
X6.5522Y-3.8864
X6.5522Y-4.4041
X6.5591Y-2.3543
X6.561Y-2.2024
X6.572Y-1.676
X6.5822Y-4.9772
X6.5876Y-3.0754
X6.5876Y-3.6108
X6.5945Y-4.5
X6.5984Y-4.7913
X6.6043Y-1.5134
X6.6063Y-2.4606
X6.6064Y-4.404
X6.61Y-1.474
X6.6339Y-2.6693
X6.6339Y-5.0433
X6.6378Y-1.6063
X6.6378Y-4.9764
X6.6437Y-3.686
X6.6496Y-2.9882
X6.654Y-1.673
X6.6555Y-2.2382
X6.6631Y-1.5101
X6.6634Y-1.7776
X6.6634Y-1.8169
X6.6634Y-3.8937
X6.6811Y-3.1339
X6.6831Y-3.4114
X6.685Y-4.7362
X6.689Y-2.0413
X6.689Y-2.7894
X6.689Y-3.5413
X6.689Y-4.2933
X6.6929Y-3.7274
X6.7087Y-5.2205
X6.7118Y-3.2146
X6.7121Y-2.6147
X6.7234Y-2.436
X6.7244Y-4.6378
X6.7704Y-4.538
X6.7953Y-1.6969
X6.7985Y-1.4625
X6.7985Y-2.318
X6.802Y-1.533
X6.8024Y-4.622
X6.8031Y-3.0787
X6.811Y-1.6594
X6.811Y-3.9331
X6.815Y-3.1988
X6.8297Y-2.436
X6.8307Y-3.1634
X6.8307Y-3.9035
X6.8386Y-2.4055
X6.8417Y-4.3947
X6.8428Y-1.6569
X6.8434Y-4.657
X6.874Y-1.7559
X6.8898Y-2.5453
X6.8957Y-2.4823
X6.8996Y-3.2844
X6.9469Y-3.2638
X6.9606Y-1.9823
X6.9685Y-3.0
X6.9765Y-2.261
X6.9804Y-5.157
X7.0104Y-5.182
X7.0965Y-1.7559
X7.1304Y-4.734
X7.1339Y-4.623
X7.1358Y-3.8937
X7.1457Y-1.5709
X7.1476Y-2.4055
X7.1496Y-3.1614
X7.1535Y-1.7008
X7.154Y-1.463
X7.1564Y-4.656
X7.1606Y-4.3712
X7.1644Y-2.3671
X7.1654Y-3.1358
X7.1804Y-3.9004
X7.1811Y-2.1594
X7.1811Y-2.9075
X7.1811Y-3.6594
X7.2028Y-2.4068
X7.2146Y-2.5551
X7.2146Y-3.2146
X7.2244Y-3.2933
X7.2274Y-4.65
X7.256Y-5.1945
X7.2677Y-2.4724
X7.269Y-4.4216
X7.2835Y-4.8622
X7.2972Y-2.5965
X7.2992Y-3.2343
X7.3012Y-2.3386
X7.3091Y-3.0709
X7.311Y-2.1555
X7.3228Y-3.7165
X7.3287Y-1.6102
X7.3425Y-2.8406
X7.3593Y-4.3396
X7.3622Y-3.5039
X7.372Y-3.2146
X7.372Y-3.4114
X7.3858Y-3.7008
X7.3858Y-4.8622
X7.4016Y-1.8307
X7.4016Y-1.9587
X7.4016Y-1.998
X7.4114Y-2.6575
X7.4134Y-2.7933
X7.4213Y-3.4744
X7.4213Y-3.6122
X7.4291Y-3.0138
X7.434Y-4.7295
X7.4409Y-2.4646
X7.4409Y-4.4823
X7.444Y-5.053
X7.4518Y-2.2539
X7.4562Y-4.1678
X7.4581Y-2.5098
X7.4606Y-2.5591
X7.4606Y-2.6594
X7.4783Y-4.6713
X7.4803Y-3.5039
X7.4862Y-2.5315
X7.4961Y-1.7815
X7.4961Y-3.8504
X7.5Y-3.2736
X7.5039Y-4.1339
X7.5138Y-3.0669
X7.5177Y-2.4173
X7.5314Y-4.721
X7.5384Y-2.5079
X7.5413Y-1.9311
X7.5492Y-3.3504
X7.5591Y-4.1575
X7.563Y-4.0945
X7.5738Y-3.9734
X7.58Y-2.435
X7.5866Y-3.3445
X7.5906Y-1.8406
X7.5955Y-1.5995
X7.5984Y-2.5984
X7.5989Y-1.7613
X7.5998Y-4.0931
X7.6093Y-4.6057
X7.6102Y-2.5167
X7.6142Y-3.4961
X7.622Y-3.1417
X7.7323Y-3.8602
X7.8051Y-4.2195
X7.8297Y-2.7441
X7.8386Y-1.9222
X7.865Y-3.439
X7.878Y-3.9528
X7.8819Y-4.2441
X7.8976Y-3.3327
X7.8996Y-2.6909
X7.8996Y-2.5994
X7.9035Y-1.8504
X7.9035Y-3.376
X7.9035Y-4.0846
X7.9114Y-2.7441
X7.9156Y-2.6553
X7.9241Y-3.8371
X7.9291Y-2.4114
X7.9331Y-3.0965
X7.9331Y-4.1043
X7.9429Y-1.8819
X7.9448Y-3.8252
X7.953Y-4.563
X7.9575Y-2.4
X7.9626Y-3.9764
X7.975Y-2.65
X7.9764Y-4.2441
X8.0Y-3.4325
X8.0157Y-4.3307
X8.0236Y-2.0945
X8.0255Y-3.102
X8.0315Y-2.8248
X8.0512Y-2.0492
X8.059Y-1.7925
X8.0615Y-3.401
X8.0645Y-3.248
X8.0748Y-4.6732
X8.1024Y-4.0945
X8.11Y-1.747
X8.1171Y-2.625
X8.1181Y-4.5551
X8.1299Y-2.5787
X8.135Y-3.7835
X8.1395Y-4.512
X8.1398Y-1.8996
X8.141Y-1.673
X8.1427Y-3.3268
X8.1519Y-4.0659
X8.1575Y-4.2835
X8.163Y-1.747
X8.178Y-3.176
X8.1791Y-2.0866
X8.1791Y-2.7756
X8.1791Y-3.5138
X8.189Y-4.2756
X8.189Y-1.716
X8.1909Y-4.4823
X8.1988Y-2.9862
X8.2382Y-1.7913
X8.2421Y-2.6614
X8.2461Y-2.5295
X8.2579Y-3.8386
X8.2598Y-1.748
X8.2598Y-1.8898
X8.26Y-3.4715
X8.264Y-3.9645
X8.2677Y-4.5866
X8.3005Y-1.7
X8.3022Y-3.3809
X8.3045Y-2.384
X8.3052Y-2.6358
X8.322Y-1.9154
X8.3228Y-1.8268
X8.3317Y-4.1289
X8.3327Y-2.6024
X8.34Y-2.7405
X8.345Y-3.4715
X8.3465Y-1.8504
X8.3465Y-3.3465
X8.3563Y-4.0965
X8.3661Y-3.189
X8.378Y-1.9291
X8.378Y-2.0
X8.4015Y-4.824
X8.4213Y-4.6732
X8.451Y-2.3737
X8.4665Y-2.432
X8.4961Y-3.9803
X8.5039Y-3.0699
X8.5433Y-3.189
X8.556Y-2.4255
X8.5669Y-4.685
X8.5965Y-2.742
X8.5984Y-1.748
X8.604Y-3.4915
X8.616Y-4.2485
X8.6378Y-1.8504
X8.6388Y-4.06
X8.6425Y-2.5925
X8.6516Y-3.3366
X8.6535Y-3.1575
X8.6683Y-4.1289
X8.6693Y-2.624
X8.6772Y-1.8819
X8.6775Y-1.964
X8.6785Y-2.4435
X8.6811Y-2.3524
X8.6831Y-3.0896
X8.6835Y-3.2761
X8.6909Y-3.8484
X8.6929Y-2.6929
X8.6969Y-3.4685
X8.7087Y-4.2126
X8.7485Y-1.7705
X8.7559Y-4.1496
X8.7765Y-2.065
X8.7795Y-1.9055
X8.7795Y-2.5512
X8.7874Y-2.7008
X8.7874Y-3.9921
X8.7953Y-3.1102
X8.7992Y-3.378
X8.8065Y-2.252
X8.8189Y-4.6142
X8.8268Y-4.3307
T2
X3.3655Y-2.6705
X3.3655Y-2.7705
T3
X3.3562Y-3.8898
X3.3562Y-4.0079
X3.3562Y-4.126
T4
X3.3025Y-1.9735
X3.3025Y-2.0735
X3.3025Y-2.1735
X3.3025Y-2.2735
X3.3238Y-4.9327
X3.3613Y-4.9976
X3.3988Y-5.0626
X3.4104Y-4.8827
X3.4479Y-4.9476
X3.4854Y-5.0126
X3.6291Y-1.5232
X3.6291Y-1.6232
X3.6291Y-1.7232
X3.6291Y-1.8232
X3.6291Y-1.9232
X3.6291Y-2.0232
X3.6291Y-2.1232
X3.6291Y-2.2232
X3.6291Y-2.3232
X3.6291Y-2.4232
X3.6291Y-2.5232
X3.6291Y-2.6232
X3.6291Y-2.7232
X3.6803Y-1.5703
X3.6803Y-1.6703
X3.6803Y-1.7703
X3.6803Y-1.8703
X3.6803Y-1.9703
X3.6803Y-2.0703
X3.6803Y-2.1703
X3.6803Y-2.2703
X3.6803Y-2.3703
X3.6803Y-2.4703
X3.6803Y-2.5703
X3.6803Y-2.6703
X3.6803Y-2.7703
X3.7598Y-3.0733
X3.7598Y-3.1619
X3.8071Y-2.865
X3.9071Y-2.865
X3.9598Y-3.0733
X3.9598Y-3.1619
X4.0071Y-2.865
X4.0433Y-3.0748
X4.0433Y-3.1614
X4.1071Y-2.865
X4.2291Y-1.5232
X4.2291Y-1.6232
X4.2291Y-1.7232
X4.2291Y-1.8232
X4.2291Y-1.9232
X4.2291Y-2.0232
X4.2291Y-2.1232
X4.2291Y-2.2232
X4.2291Y-2.3232
X4.2291Y-2.4232
X4.2291Y-2.5232
X4.2291Y-2.6232
X4.2291Y-2.7232
X4.2803Y-1.5703
X4.2803Y-1.6703
X4.2803Y-1.7703
X4.2803Y-1.8703
X4.2803Y-1.9703
X4.2803Y-2.0703
X4.2803Y-2.1703
X4.2803Y-2.2703
X4.2803Y-2.3703
X4.2803Y-2.4703
X4.2803Y-2.5703
X4.2803Y-2.6703
X4.2803Y-2.7703
T5
X3.6417Y-4.0157
X3.6417Y-4.1142
X3.6417Y-4.2126
X4.2126Y-4.0157
X4.2126Y-4.2126
X4.248Y-2.9921
X4.248Y-3.0945
X4.248Y-3.1929
X4.4291Y-3.1693
X4.4291Y-3.2677
X4.4291Y-3.3701
X6.942Y-4.516
X7.0404Y-4.516
X7.1428Y-4.516
X7.3031Y-3.7815
X7.3031Y-3.8839
X7.3031Y-3.9823
T6
X3.365Y-2.9181
X3.365Y-3.174
T8
X3.6024Y-3.6811
X4.2126Y-3.6811
T9
X4.0443Y-4.6939
X5.1102Y-3.8307
X5.1173Y-2.2504
X8.1083Y-3.9272
X8.1102Y-2.4213
T10
X3.3476Y-3.3735
X3.3476Y-3.4424
X3.6231Y-3.3735
X3.6231Y-3.4424
T11
X3.7189Y-5.0985
X3.8961Y-5.4054
X4.4588Y-5.101
X4.5669Y-1.9685
X4.5669Y-2.7205
X4.5669Y-3.4685
X4.5669Y-4.2165
X4.801Y-5.0093
X4.9213Y-1.9685
X4.9213Y-2.7205
X4.9213Y-3.4685
X4.9213Y-4.2165
X5.315Y-1.8701
X5.315Y-2.622
X5.315Y-3.3701
X5.315Y-4.122
X5.315Y-4.8701
X5.6693Y-1.8701
X5.6693Y-2.622
X5.6693Y-3.3701
X5.6693Y-4.122
X5.6693Y-4.8701
X6.0669Y-1.7717
X6.0669Y-2.5232
X6.0669Y-3.2752
X6.0669Y-4.0232
X6.0669Y-4.7752
X6.4213Y-1.7717
X6.4213Y-2.5232
X6.4213Y-3.2752
X6.4213Y-4.0232
X6.4213Y-4.7752
X6.815Y-1.8701
X6.815Y-2.6181
X6.815Y-3.3701
X6.815Y-4.122
X6.815Y-4.874
X7.1693Y-1.8701
X7.1693Y-2.6181
X7.1693Y-3.3701
X7.1693Y-4.122
X7.1693Y-4.874
X7.5669Y-2.063
X7.5669Y-2.8071
X7.5669Y-3.563
X7.5669Y-4.311
X7.9213Y-2.063
X7.9213Y-2.8071
X7.9213Y-3.563
X7.9213Y-4.311
X8.315Y-2.8071
X8.315Y-3.563
X8.3169Y-4.311
X8.3189Y-2.063
X8.6693Y-2.8071
X8.6693Y-3.563
X8.6713Y-4.311
X8.6732Y-2.063
T12
X3.7075Y-5.0788
X3.9075Y-5.4252
X4.4367Y-5.1069
X4.5441Y-1.9685
X4.5441Y-2.7205
X4.5441Y-3.4685
X4.5441Y-4.2165
X4.8231Y-5.0034
X4.9441Y-1.9685
X4.9441Y-2.7205
X4.9441Y-3.4685
X4.9441Y-4.2165
X5.2921Y-1.8701
X5.2921Y-2.622
X5.2921Y-3.3701
X5.2921Y-4.122
X5.2921Y-4.8701
X5.6921Y-1.8701
X5.6921Y-2.622
X5.6921Y-3.3701
X5.6921Y-4.122
X5.6921Y-4.8701
X6.0441Y-1.7717
X6.0441Y-2.5232
X6.0441Y-3.2752
X6.0441Y-4.0232
X6.0441Y-4.7752
X6.4441Y-1.7717
X6.4441Y-2.5232
X6.4441Y-3.2752
X6.4441Y-4.0232
X6.4441Y-4.7752
X6.7921Y-1.8701
X6.7921Y-2.6181
X6.7921Y-3.3701
X6.7921Y-4.122
X6.7921Y-4.874
X7.1921Y-1.8701
X7.1921Y-2.6181
X7.1921Y-3.3701
X7.1921Y-4.122
X7.1921Y-4.874
X7.5441Y-2.063
X7.5441Y-2.8071
X7.5441Y-3.563
X7.5441Y-4.311
X7.9441Y-2.063
X7.9441Y-2.8071
X7.9441Y-3.563
X7.9441Y-4.311
X8.2921Y-2.8071
X8.2921Y-3.563
X8.2941Y-4.311
X8.2961Y-2.063
X8.6921Y-2.8071
X8.6921Y-3.563
X8.6941Y-4.311
X8.6961Y-2.063
T13
X3.5843Y-5.2654
X3.6459Y-5.1721
X3.6843Y-5.4386
X3.7959Y-5.4319
X4.5109Y-5.1905
X4.5851Y-5.2742
X4.5941Y-2.0685
X4.5941Y-2.8205
X4.5941Y-3.5685
X4.5941Y-4.3165
X4.6441Y-2.1685
X4.6441Y-2.9205
X4.6441Y-3.6685
X4.6441Y-4.4165
X4.7783Y-5.2224
X4.8007Y-5.1129
X4.8441Y-2.1685
X4.8441Y-2.9205
X4.8441Y-3.6685
X4.8441Y-4.4165
X4.8941Y-2.0685
X4.8941Y-2.8205
X4.8941Y-3.5685
X4.8941Y-4.3165
X5.3421Y-1.9701
X5.3421Y-2.722
X5.3421Y-3.4701
X5.3421Y-4.222
X5.3421Y-4.9701
X5.3921Y-2.0701
X5.3921Y-2.822
X5.3921Y-3.5701
X5.3921Y-4.322
X5.3921Y-5.0701
X5.5921Y-2.0701
X5.5921Y-2.822
X5.5921Y-3.5701
X5.5921Y-4.322
X5.5921Y-5.0701
X5.6421Y-1.9701
X5.6421Y-2.722
X5.6421Y-3.4701
X5.6421Y-4.222
X5.6421Y-4.9701
X6.0941Y-1.8717
X6.0941Y-2.6232
X6.0941Y-3.3752
X6.0941Y-4.1232
X6.0941Y-4.8752
X6.1441Y-1.9717
X6.1441Y-2.7232
X6.1441Y-3.4752
X6.1441Y-4.2232
X6.1441Y-4.9752
X6.3441Y-1.9717
X6.3441Y-2.7232
X6.3441Y-3.4752
X6.3441Y-4.2232
X6.3441Y-4.9752
X6.3941Y-1.8717
X6.3941Y-2.6232
X6.3941Y-3.3752
X6.3941Y-4.1232
X6.3941Y-4.8752
X6.8421Y-1.9701
X6.8421Y-2.7181
X6.8421Y-3.4701
X6.8421Y-4.222
X6.8421Y-4.974
X6.8921Y-2.0701
X6.8921Y-2.8181
X6.8921Y-3.5701
X6.8921Y-4.322
X6.8921Y-5.074
X7.0921Y-2.0701
X7.0921Y-2.8181
X7.0921Y-3.5701
X7.0921Y-4.322
X7.0921Y-5.074
X7.1421Y-1.9701
X7.1421Y-2.7181
X7.1421Y-3.4701
X7.1421Y-4.222
X7.1421Y-4.974
X7.5941Y-2.163
X7.5941Y-2.9071
X7.5941Y-3.663
X7.5941Y-4.411
X7.6441Y-2.263
X7.6441Y-3.0071
X7.6441Y-3.763
X7.6441Y-4.511
X7.8441Y-2.263
X7.8441Y-3.0071
X7.8441Y-3.763
X7.8441Y-4.511
X7.8941Y-2.163
X7.8941Y-2.9071
X7.8941Y-3.663
X7.8941Y-4.411
X8.3421Y-2.9071
X8.3421Y-3.663
X8.3441Y-4.411
X8.3461Y-2.163
X8.3921Y-3.0071
X8.3921Y-3.763
X8.3941Y-4.511
X8.3961Y-2.263
X8.5921Y-3.0071
X8.5921Y-3.763
X8.5941Y-4.511
X8.5961Y-2.263
X8.6421Y-2.9071
X8.6421Y-3.663
X8.6441Y-4.411
X8.6461Y-2.163
T14
X3.8091Y-5.2492
X4.6299Y-5.0551
X4.7441Y-1.9685
X4.7441Y-2.7205
X4.7441Y-3.4685
X4.7441Y-4.2165
X5.4921Y-1.8701
X5.4921Y-2.622
X5.4921Y-3.3701
X5.4921Y-4.122
X5.4921Y-4.8701
X6.2441Y-1.7717
X6.2441Y-2.5232
X6.2441Y-3.2752
X6.2441Y-4.0232
X6.2441Y-4.7752
X6.9921Y-1.8701
X6.9921Y-2.6181
X6.9921Y-3.3701
X6.9921Y-4.122
X6.9921Y-4.874
X7.7441Y-2.063
X7.7441Y-2.8071
X7.7441Y-3.563
X7.7441Y-4.311
X8.4921Y-2.8071
X8.4921Y-3.563
X8.4941Y-4.311
X8.4961Y-2.063
T3
G00X3.3995Y-3.7618
M15
G01X3.3129Y-3.7618
M16
G05
G00X3.3995Y-4.2539
M15
G01X3.3129Y-4.2539
M16
G05
T5
G00X3.4086Y-3.2908
M15
G01X3.4283Y-3.2908
M16
G05
G00X3.4086Y-3.5251
M15
G01X3.4283Y-3.5251
M16
G05
G00X3.5267Y-3.2908
M15
G01X3.5464Y-3.2908
M16
G05
G00X3.5267Y-3.5251
M15
G01X3.5464Y-3.5251
M16
G05
G00X3.6842Y-3.2908
M15
G01X3.7039Y-3.2908
M16
G05
G00X3.6842Y-3.5251
M15
G01X3.7039Y-3.5251
M16
G05
G00X3.7432Y-3.3597
M15
G01X3.7629Y-3.3597
M16
G05
G00X3.7432Y-3.4562
M15
G01X3.7629Y-3.4562
M16
G05
T7
G00X3.9114Y-3.8937
M15
G01X3.9626Y-3.8937
M16
G05
G00X3.9114Y-4.3346
M15
G01X3.9626Y-4.3346
M16
G05
T0
M30
